<svg width="24" height="24" viewBox="0 0 24 24" fill="none" xmlns="http://www.w3.org/2000/svg">
<path d="M12.0002 0.333008C5.5835 0.333008 0.333496 5.58301 0.333496 11.9997C0.333496 18.4163 5.5835 23.6663 12.0002 23.6663C18.4168 23.6663 23.6668 18.4163 23.6668 11.9997C23.6668 5.58301 18.4168 0.333008 12.0002 0.333008ZM12.0002 21.333C6.85516 21.333 2.66683 17.1447 2.66683 11.9997C2.66683 6.85467 6.85516 2.66634 12.0002 2.66634C17.1452 2.66634 21.3335 6.85467 21.3335 11.9997C21.3335 17.1447 17.1452 21.333 12.0002 21.333ZM12.5835 6.16634H10.8335V13.1663L16.9002 16.8997L17.8335 15.383L12.5835 12.233V6.16634Z" fill="#5C87F3"/>
</svg>
